<?xml version="1.0" encoding="UTF-8" standalone="no"?>
<svg
        width="74.86515mm"
        height="91.501259mm"
        viewBox="0 0 74.86515 91.501259"
        version="1.1"
        id="svg1"
        xml:space="preserve"
        xmlns="http://www.w3.org/2000/svg"
>
    <defs
            id="defs1"/>
    <g
            id="layer1"
            transform="translate(-67.74527,-133.08544)"><g
       style="fill:none;stroke:currentColor;stroke-width:2;stroke-linecap:round;stroke-linejoin:round"
       id="g1"
       transform="matrix(4.159175,0,0,4.159175,55.267745,128.91381)"><path
         d="m 20,13 c 0,5 -3.5,7.5 -7.66,8.95 A 1,1 0 0 1 11.67,21.94 C 7.5,20.5 4,18 4,13 V 6 A 1,1 0 0 1 5,5 C 7,5 9.5,3.8 11.24,2.28 a 1.17,1.17 0 0 1 1.52,0 C 14.51,3.81 17,5 19,5 a 1,1 0 0 1 1,1 z"
         id="path1" /></g>
        <text
                xml:space="preserve"
                style="font-style:italic;font-weight:900;font-size:35.2778px;font-family:'Playfair Display';-inkscape-font-specification:'Playfair Display Heavy Italic';text-align:start;writing-mode:lr-tb;direction:ltr;text-anchor:start;fill:#000000;stroke:currentColor;stroke-width:0"
                x="87.018593"
                y="191.44788"
                id="text1"><tspan
         id="tspan1"
         style="font-style:normal;font-variant:normal;font-weight:bold;font-stretch:normal;font-size:35.2778px;font-family:Lato;-inkscape-font-specification:'Lato Bold';stroke-width:0"
         x="87.018593"
         y="191.44788">UI</tspan></text></g></svg>
